<?xml version="1.0" standalone="no"?>
<!DOCTYPE svg PUBLIC "-//W3C//DTD SVG 20010904//EN"
 "http://www.w3.org/TR/2001/REC-SVG-20010904/DTD/svg10.dtd">
<svg version="1.0" xmlns="http://www.w3.org/2000/svg"
 width="15.000000pt" height="15.000000pt" viewBox="0 0 512.000000 512.000000"
 preserveAspectRatio="xMidYMid meet">
<metadata>
Created by potrace 1.16, written by Peter Selinger 2001-2019
</metadata>
<g transform="translate(0.000000,512.000000) scale(0.100000,-0.100000)"
fill="#ec7476" stroke="none">
<path d="M22 5097 l-22 -23 0 -2515 0 -2516 23 -21 23 -22 2515 0 2516 0 21
23 22 23 0 2515 0 2516 -23 21 -23 22 -2515 0 -2516 0 -21 -23z m4928 -2537
l0 -2390 -2390 0 -2390 0 0 2390 0 2390 2390 0 2390 0 0 -2390z"/>
<path d="M1410 3748 c-33 -18 -52 -56 -45 -93 4 -23 127 -151 538 -562 l532
-533 -527 -527 c-290 -291 -532 -540 -537 -555 -24 -65 41 -131 106 -107 15 5
265 247 556 537 l527 527 528 -527 c290 -290 540 -532 555 -537 65 -24 130 42
106 107 -5 15 -247 264 -537 555 l-527 527 535 535 c528 529 535 535 535 575
0 54 -31 85 -85 85 -40 0 -46 -7 -575 -535 l-535 -535 -532 532 c-560 560
-561 560 -618 531z"/>
</g>
</svg>
