<?xml version="1.0" standalone="no"?>
<!DOCTYPE svg PUBLIC "-//W3C//DTD SVG 20010904//EN"
 "http://www.w3.org/TR/2001/REC-SVG-20010904/DTD/svg10.dtd">
<svg version="1.0" xmlns="http://www.w3.org/2000/svg"
 width="15.000000pt" height="15.000000pt" viewBox="0 0 512.000000 512.000000"
 preserveAspectRatio="xMidYMid meet">
<metadata>
Created by potrace 1.16, written by Peter Selinger 2001-2019
</metadata>
<g transform="translate(0.000000,512.000000) scale(0.100000,-0.100000)"
fill="#3d559f" stroke="none">
<path d="M465 5101 c-166 -48 -315 -168 -392 -316 -79 -153 -73 36 -73 -2225
0 -2261 -6 -2072 73 -2225 56 -108 154 -206 263 -263 146 -75 89 -72 1217 -72
l1007 0 0 880 0 880 -320 0 -320 0 0 400 0 400 319 0 320 0 3 403 c4 376 5
407 26 480 94 337 352 595 689 689 73 21 104 22 481 26 l402 3 0 -400 0 -399
-262 -4 c-306 -4 -326 -8 -358 -80 -18 -40 -20 -68 -20 -380 l0 -338 400 0
c220 0 400 -1 400 -3 0 -1 -71 -180 -158 -397 l-158 -395 -242 -3 -242 -2 0
-880 0 -880 528 0 c594 0 597 1 736 72 109 57 207 155 263 263 79 153 73 -36
73 2225 0 2261 6 2072 -73 2225 -56 108 -154 206 -262 262 -153 79 37 73
-2231 72 -1892 0 -2033 -2 -2089 -18z"/>
</g>
</svg>
