<?xml version="1.0" standalone="no"?>
<!DOCTYPE svg PUBLIC "-//W3C//DTD SVG 20010904//EN"
 "http://www.w3.org/TR/2001/REC-SVG-20010904/DTD/svg10.dtd">
<svg version="1.0" xmlns="http://www.w3.org/2000/svg"
 width="60.000000pt" height="60.000000pt" viewBox="0 0 512.000000 512.000000"
 preserveAspectRatio="xMidYMid meet">
<metadata>
Created by potrace 1.16, written by Peter Selinger 2001-2019
</metadata>
<g transform="translate(0.000000,512.000000) scale(0.100000,-0.100000)"
fill="#000000" stroke="none">
<path d="M998 5104 c-34 -18 -58 -62 -58 -107 0 -48 29 -83 264 -317 113 -113
206 -210 206 -215 0 -13 -243 -255 -255 -255 -5 0 -115 106 -245 235 l-236
235 -50 0 c-95 0 -124 -46 -124 -197 1 -211 67 -380 208 -534 155 -168 378
-256 624 -247 72 2 92 0 100 -12 8 -12 -35 -82 -180 -298 -226 -337 -237 -360
-230 -529 3 -93 8 -117 33 -173 27 -58 258 -383 323 -452 51 -55 142 -26 142
45 0 23 -35 77 -145 224 -191 256 -190 253 -190 378 0 79 4 107 19 135 30 57
356 542 385 573 50 55 131 82 201 66 49 -11 738 -324 763 -347 52 -47 64 -137
27 -197 -25 -41 -85 -75 -131 -75 -17 0 -97 27 -178 61 -166 69 -221 79 -302
55 -77 -22 -114 -50 -186 -139 -49 -61 -63 -85 -63 -111 0 -38 26 -74 55 -77
55 -4 66 2 130 81 78 93 111 110 185 90 41 -10 95 -62 580 -546 l535 -534 0
-137 c1 -155 14 -218 71 -342 l34 -74 0 -181 0 -181 -630 0 -630 0 0 256 c0
353 4 340 -210 627 -74 99 -145 185 -158 191 -36 17 -61 13 -87 -14 -48 -47
-39 -70 116 -276 81 -108 149 -210 160 -239 17 -45 19 -78 19 -328 l0 -277
-35 -28 c-48 -39 -95 -110 -117 -179 -16 -53 -18 -96 -18 -373 0 -301 1 -313
21 -339 27 -34 88 -37 119 -4 19 21 20 34 20 332 0 291 2 314 21 356 25 56 53
86 104 113 40 22 44 22 670 22 626 0 630 0 670 -22 51 -27 90 -68 109 -115 13
-31 16 -90 16 -346 0 -298 1 -310 21 -336 26 -34 88 -37 119 -6 20 20 21 30
18 363 l-3 342 -28 61 c-16 35 -50 82 -78 110 l-49 48 0 119 0 119 23 -16
c172 -124 382 -184 562 -161 49 6 65 13 93 41 32 32 34 38 30 85 l-5 51 -232
232 c-127 127 -231 236 -231 241 0 13 242 255 255 255 5 0 113 -103 240 -229
240 -239 257 -251 324 -236 15 3 41 20 57 36 l29 30 0 137 c0 116 -4 149 -23
212 -26 82 -70 173 -112 235 -70 101 -210 216 -327 266 -75 32 -201 59 -280
59 l-71 0 -6 38 c-3 20 -13 121 -22 224 -15 180 -15 190 3 235 26 68 23 173
-7 241 -28 66 -112 144 -176 166 -26 9 -73 16 -104 16 l-57 0 -12 58 c-27 140
-140 236 -293 249 l-66 6 -7 36 c-13 70 -47 131 -101 180 -62 56 -123 81 -204
81 l-56 0 -12 58 c-15 73 -58 142 -114 182 -71 52 -106 63 -198 64 -112 1
-174 -28 -258 -119 l-58 -64 -69 69 -68 68 -2 139 c-2 147 -14 209 -62 316
-14 32 -34 62 -44 67 -29 16 -84 12 -101 -7 -29 -33 -30 -59 -3 -122 46 -110
58 -183 51 -312 -4 -71 -3 -125 3 -142 6 -15 49 -67 97 -117 l86 -89 -49 -63
-48 -63 -45 6 c-55 8 -119 2 -183 -18 l-49 -15 -31 30 c-55 51 -69 55 -191 47
-208 -12 -368 46 -506 184 -105 106 -180 264 -180 380 0 34 3 32 198 -161 185
-183 200 -196 249 -207 43 -11 61 -10 105 3 48 14 68 30 195 158 153 155 172
187 159 271 -11 68 -34 98 -219 285 -176 177 -180 182 -148 182 57 0 152 -30
243 -77 91 -46 113 -48 151 -15 28 25 23 88 -10 118 -39 37 -158 91 -248 114
-98 25 -294 28 -337 4z m1439 -1024 c69 -31 107 -114 84 -182 -9 -27 -140
-190 -210 -262 -18 -18 -22 -17 -157 44 -77 34 -142 65 -146 69 -12 10 256
315 293 334 44 22 84 21 136 -3z m372 -305 c71 -36 106 -121 77 -189 -8 -20
-50 -76 -92 -125 l-77 -88 -36 40 c-24 27 -68 56 -133 87 l-96 46 87 103 c48
56 100 111 117 121 35 24 113 26 153 5z m376 -308 c87 -48 106 -152 42 -232
-100 -127 -255 -296 -283 -310 -76 -36 -165 -8 -207 63 -19 32 -19 36 -4 68 9
19 20 53 23 77 6 35 25 63 114 167 59 69 118 135 131 147 52 47 122 55 184 20z
m366 -303 c68 -34 103 -121 76 -185 -8 -19 -74 -103 -147 -188 -104 -119 -143
-158 -178 -173 -145 -64 -284 113 -184 235 34 41 263 307 265 307 1 0 20 7 42
15 42 15 82 12 126 -11z m-830 -378 c40 -22 70 -30 125 -34 l72 -5 7 -36 c19
-104 89 -195 184 -239 67 -32 178 -35 251 -9 l45 16 100 -98 c134 -132 136
-132 282 -125 144 8 209 -4 318 -56 173 -84 289 -224 335 -406 38 -147 40
-148 -168 59 -115 113 -203 193 -225 202 -46 19 -117 19 -163 0 -19 -8 -91
-69 -160 -136 -164 -162 -192 -217 -163 -324 9 -33 48 -77 207 -237 217 -219
216 -216 68 -178 -209 53 -375 206 -447 410 -21 57 -23 84 -24 225 0 105 -4
167 -12 180 -6 11 -206 214 -443 450 l-430 430 52 16 53 16 41 -46 c23 -26 66
-60 95 -75z"/>
<path d="M3047 602 c-23 -26 -22 -94 1 -115 26 -23 94 -22 115 1 23 26 22 94
-1 115 -26 23 -94 22 -115 -1z"/>
</g>
</svg>
