<?xml version="1.0" standalone="no"?>
<!DOCTYPE svg PUBLIC "-//W3C//DTD SVG 20010904//EN"
 "http://www.w3.org/TR/2001/REC-SVG-20010904/DTD/svg10.dtd">
<svg version="1.0" xmlns="http://www.w3.org/2000/svg"
 width="20.000000pt" height="15.000000pt" viewBox="0 0 512.000000 512.000000"
 preserveAspectRatio="xMidYMid meet">
<metadata>
Created by potrace 1.16, written by Peter Selinger 2001-2019
</metadata>
<g transform="translate(0.000000,512.000000) scale(0.100000,-0.100000)"
fill="#727272" stroke="none">
<path d="M1285 4610 c-192 -54 -340 -115 -483 -202 -388 -233 -634 -557 -743
-976 -59 -230 -59 -227 -59 -1568 l0 -1224 1120 0 1120 0 0 1120 0 1120 -620
0 -620 0 -35 54 c-145 227 -167 477 -64 734 92 231 329 414 642 497 63 16 91
28 89 37 -2 7 -45 109 -94 226 -106 247 -83 230 -253 182z"/>
<path d="M4165 4610 c-192 -54 -340 -115 -483 -202 -388 -233 -634 -557 -743
-976 -59 -230 -59 -227 -59 -1568 l0 -1224 1120 0 1120 0 0 1120 0 1120 -620
0 -620 0 -35 54 c-145 227 -167 477 -64 734 92 231 329 414 642 497 63 16 91
28 89 37 -2 7 -45 109 -94 226 -106 247 -83 230 -253 182z"/>
</g>
</svg>
