<?xml version="1.0" standalone="no"?>
<!DOCTYPE svg PUBLIC "-//W3C//DTD SVG 20010904//EN"
 "http://www.w3.org/TR/2001/REC-SVG-20010904/DTD/svg10.dtd">
<svg version="1.0" xmlns="http://www.w3.org/2000/svg"
 width="50.000000pt" height="50.000000pt" viewBox="0 0 512.000000 512.000000"
 preserveAspectRatio="xMidYMid meet">
<metadata>
Created by potrace 1.16, written by Peter Selinger 2001-2019
</metadata>
<g transform="translate(0.000000,512.000000) scale(0.100000,-0.100000)"
fill="#de790d" stroke="none">
<path d="M1312 5024 c-33 -23 -202 -365 -202 -409 0 -67 82 -102 127 -52 12
12 52 84 89 159 l69 137 994 -415 c547 -227 1007 -414 1022 -414 64 0 100 85
54 129 -23 22 -2082 881 -2111 881 -11 0 -30 -7 -42 -16z"/>
<path d="M356 4498 c-17 -26 -186 -776 -186 -824 0 -23 8 -39 26 -53 33 -26
64 -27 96 -2 22 18 33 58 103 375 44 196 83 356 87 356 5 0 758 -169 1675
-375 917 -206 1677 -375 1688 -375 59 0 89 88 46 133 -20 20 -3407 787 -3478
787 -33 0 -46 -5 -57 -22z"/>
<path d="M20 3390 c-20 -20 -20 -33 -20 -1083 l0 -1064 21 -19 c21 -18 62 -19
1483 -22 988 -2 1473 0 1497 7 59 18 77 83 34 126 l-24 25 -1431 0 -1430 0 0
950 0 950 2060 0 2060 0 0 -95 c0 -52 5 -105 11 -119 14 -31 57 -49 93 -40 46
11 56 47 56 207 0 131 -2 147 -21 171 l-20 26 -2175 0 c-2161 0 -2174 0 -2194
-20z"/>
<path d="M549 2863 l-209 -208 0 -343 0 -342 161 -178 c88 -97 176 -192 195
-209 l34 -33 374 0 375 0 20 26 c27 34 27 64 0 98 l-20 26 -339 0 -338 0 -156
171 -156 171 0 272 1 271 173 168 174 167 319 0 320 0 21 23 c28 29 28 67 1
101 l-20 26 -360 0 -360 0 -210 -207z"/>
<path d="M2020 3060 c-284 -40 -522 -242 -617 -525 -24 -71 -27 -96 -27 -220
-1 -120 2 -151 22 -215 83 -264 279 -454 543 -526 97 -26 281 -24 384 5 246
68 440 253 522 496 25 73 27 94 27 235 1 149 -1 159 -30 243 -45 125 -87 190
-189 292 -76 77 -105 98 -185 138 -143 70 -302 97 -450 77z m234 -155 c214
-45 397 -219 462 -440 12 -40 17 -93 17 -160 0 -84 -5 -113 -30 -185 -150
-434 -682 -561 -1004 -240 -123 122 -179 259 -179 433 0 382 359 672 734 592z"/>
<path d="M2085 2688 c-26 -15 -44 -39 -45 -59 0 -10 -17 -23 -43 -33 -124 -47
-168 -196 -88 -296 47 -59 84 -74 190 -80 58 -3 96 -9 98 -17 3 -8 -36 -12
-136 -15 -136 -3 -141 -4 -167 -29 -34 -35 -36 -90 -3 -125 19 -20 32 -24 84
-24 61 0 63 -1 68 -30 4 -19 17 -34 36 -45 56 -28 104 -14 125 37 9 20 30 38
67 57 119 59 150 195 67 295 -45 54 -80 69 -188 75 -55 4 -94 10 -93 16 2 6
60 12 135 15 78 3 142 10 155 17 25 15 46 72 37 99 -17 47 -45 64 -106 64 -57
0 -59 1 -70 30 -17 49 -79 73 -123 48z"/>
<path d="M2759 3051 c-29 -23 -31 -81 -4 -111 18 -19 28 -20 395 -20 367 0
377 1 395 20 27 30 25 88 -4 111 -22 18 -47 19 -391 19 -344 0 -369 -1 -391
-19z"/>
<path d="M3975 2819 c-406 -27 -696 -143 -734 -293 -15 -63 -16 -2078 0 -2141
27 -106 155 -187 384 -244 397 -97 950 -75 1267 50 104 42 165 84 199 138 l29
45 0 1079 c0 1076 0 1079 -21 1116 -47 82 -184 155 -374 199 -127 30 -208 41
-375 52 -161 11 -202 11 -375 -1z m490 -190 c112 -12 251 -41 329 -68 67 -24
146 -67 146 -81 0 -29 -162 -93 -311 -124 -246 -51 -646 -51 -898 0 -152 30
-306 93 -306 124 0 36 195 109 363 136 196 32 459 37 677 13z m-934 -409 c170
-56 374 -82 649 -82 290 0 568 40 708 102 24 11 46 20 49 20 2 0 3 -30 1 -67
l-3 -68 -60 -32 c-111 -59 -288 -97 -537 -114 -355 -24 -766 39 -895 137 -31
23 -33 29 -33 86 0 53 2 59 18 53 9 -4 56 -20 103 -35z m-69 -318 c153 -66
410 -104 703 -105 298 -1 519 28 698 93 l77 29 0 -64 c0 -63 -1 -65 -37 -90
-78 -53 -276 -102 -502 -125 -368 -37 -850 34 -968 143 -19 17 -23 31 -23 79
0 32 2 58 4 58 2 0 24 -8 48 -18z m154 -391 c161 -41 306 -55 559 -55 172 0
274 5 361 17 137 19 291 56 358 86 l46 20 0 -63 c0 -73 -7 -82 -92 -121 -268
-123 -901 -140 -1243 -34 -89 27 -181 73 -189 94 -3 9 -6 41 -6 70 l0 54 64
-24 c35 -13 99 -33 142 -44z m-21 -337 c285 -77 764 -85 1095 -18 64 13 169
45 233 69 15 6 17 0 17 -54 0 -74 -11 -87 -119 -129 -172 -68 -400 -97 -716
-89 -281 7 -490 43 -618 109 -65 33 -77 51 -77 118 l0 59 48 -20 c26 -11 88
-32 137 -45z m-101 -310 c178 -64 399 -95 688 -95 309 0 548 38 741 116 15 6
17 0 17 -59 l0 -65 -43 -26 c-251 -146 -952 -174 -1314 -51 -151 51 -173 70
-173 148 0 32 3 58 6 58 4 0 39 -12 78 -26z m-8 -340 c174 -65 393 -96 689
-96 331 0 550 34 748 117 15 6 17 0 17 -58 0 -60 -2 -67 -27 -85 -68 -47 -257
-102 -423 -121 -407 -48 -896 10 -1046 124 -32 24 -34 30 -34 86 0 32 2 59 4
59 2 0 34 -12 72 -26z"/>
</g>
</svg>
