<?xml version="1.0" standalone="no"?>
<!DOCTYPE svg PUBLIC "-//W3C//DTD SVG 20010904//EN"
 "http://www.w3.org/TR/2001/REC-SVG-20010904/DTD/svg10.dtd">
<svg version="1.0" xmlns="http://www.w3.org/2000/svg"
 width="35.000000pt" height="35.000000pt" viewBox="0 0 512.000000 512.000000"
 preserveAspectRatio="xMidYMid meet">
<metadata>
Created by potrace 1.16, written by Peter Selinger 2001-2019
</metadata>
<g transform="translate(0.000000,512.000000) scale(0.100000,-0.100000)"
fill="#bdbdbd" stroke="none">
<path d="M1295 5106 c-94 -42 -140 -165 -100 -264 11 -26 344 -366 1138 -1160
l1122 -1122 -1122 -1123 c-616 -617 -1128 -1136 -1137 -1154 -40 -79 -7 -202
66 -251 46 -30 135 -41 190 -23 24 8 362 340 1255 1233 1097 1098 1222 1227
1229 1261 11 63 -1 133 -29 174 -15 21 -561 572 -1214 1225 -840 839 -1199
1192 -1225 1203 -46 18 -132 19 -173 1z"/>
</g>
</svg>
