<?xml version="1.0" standalone="no"?>
<!DOCTYPE svg PUBLIC "-//W3C//DTD SVG 20010904//EN"
 "http://www.w3.org/TR/2001/REC-SVG-20010904/DTD/svg10.dtd">
<svg version="1.0" xmlns="http://www.w3.org/2000/svg"
 width="60.000000pt" height="60.000000pt" viewBox="0 0 512.000000 512.000000"
 preserveAspectRatio="xMidYMid meet">
<metadata>
Created by potrace 1.16, written by Peter Selinger 2001-2019
</metadata>
<g transform="translate(0.000000,512.000000) scale(0.100000,-0.100000)"
fill="#000000" stroke="none">
<path d="M2155 5063 c-146 -23 -325 -96 -442 -179 -139 -100 -275 -266 -341
-419 -62 -143 -83 -252 -83 -420 0 -326 150 -621 414 -818 l48 -36 -69 -20
c-96 -29 -123 -65 -98 -126 10 -22 24 -37 41 -41 29 -7 29 -7 186 34 336 89
743 82 1059 -17 36 -12 78 -21 93 -21 37 0 77 40 77 78 0 40 -31 68 -97 88
-32 10 -62 21 -66 25 -5 4 11 20 35 37 55 38 167 149 209 207 35 49 42 51 119
33 47 -11 50 -13 45 -37 -29 -135 -22 -332 16 -444 83 -246 326 -401 604 -384
172 10 266 71 340 218 l37 73 20 -25 c73 -90 151 -234 204 -374 29 -76 69
-127 124 -154 19 -10 86 -35 148 -56 126 -41 167 -69 182 -123 13 -47 13 -356
0 -403 -18 -64 -50 -83 -255 -149 -104 -33 -207 -72 -228 -86 -22 -14 -58 -56
-84 -97 -134 -209 -304 -366 -543 -504 -46 -26 -91 -59 -102 -73 -12 -17 -35
-115 -73 -314 -30 -159 -57 -298 -61 -308 -5 -17 -18 -18 -202 -16 l-197 3
-35 176 c-20 97 -43 187 -53 203 -34 51 -56 53 -347 26 -142 -12 -346 -12
-491 1 -110 10 -122 9 -151 -8 -49 -28 -64 -65 -93 -223 -14 -80 -28 -153 -31
-162 -5 -16 -23 -18 -200 -18 -192 0 -195 0 -204 23 -5 12 -32 144 -60 292
-28 149 -57 280 -65 291 -8 12 -50 43 -95 69 -351 206 -561 497 -647 896 -28
130 -25 488 4 621 77 342 255 615 517 793 49 33 104 75 123 93 31 28 35 37 29
65 -7 39 -39 67 -75 67 -32 0 -150 -72 -243 -147 -264 -215 -437 -502 -503
-835 -10 -49 -21 -88 -25 -88 -4 0 -10 27 -13 60 -7 79 -49 160 -113 219 -107
98 -238 94 -327 -10 -71 -82 -80 -189 -22 -264 28 -38 125 -91 206 -114 l59
-17 -42 -43 c-68 -69 -131 -99 -241 -116 -52 -8 -77 -36 -77 -84 0 -31 6 -44
27 -61 25 -20 36 -21 96 -16 118 11 206 56 307 158 28 29 63 72 77 95 44 75
53 60 53 -85 0 -153 12 -261 46 -402 84 -358 304 -667 619 -871 50 -32 98 -64
108 -71 14 -10 30 -75 72 -289 29 -152 58 -285 63 -295 16 -30 64 -72 95 -83
38 -15 456 -15 494 0 34 12 80 55 98 89 7 14 25 91 40 172 l28 148 26 -8 c44
-12 539 -7 644 7 55 7 101 11 103 8 3 -2 18 -72 34 -155 32 -169 44 -199 97
-239 l36 -28 238 -3 c222 -3 240 -2 278 17 38 20 70 56 85 96 4 11 32 148 61
305 30 157 59 286 64 288 6 2 50 28 98 58 245 154 385 291 555 542 25 39 31
41 230 106 183 59 210 70 253 108 27 24 58 64 71 93 23 48 24 59 24 295 0 236
-1 247 -24 295 -40 87 -97 127 -257 180 -77 26 -146 53 -153 61 -8 7 -22 35
-31 61 -55 155 -166 345 -265 457 -58 67 -57 53 -29 221 7 39 12 142 12 230 0
236 -34 340 -123 380 -104 47 -376 -22 -750 -190 l-123 -55 -69 16 c-58 13
-68 19 -62 32 55 132 95 342 74 392 -22 54 -104 65 -134 17 -7 -12 -19 -62
-25 -112 -39 -296 -235 -561 -505 -680 -48 -21 -60 -23 -122 -15 -89 12 -369
12 -459 0 -69 -9 -70 -8 -148 31 -274 138 -446 388 -477 694 -35 339 149 673
461 839 139 74 216 91 404 91 154 0 163 -2 255 -33 139 -48 239 -111 345 -218
50 -49 105 -117 124 -150 52 -88 68 -104 112 -104 29 0 42 6 58 26 26 34 26
54 0 107 -119 234 -354 423 -624 503 -77 22 -112 27 -245 29 -85 2 -168 1
-185 -2z m2044 -1408 c21 -58 19 -322 -4 -445 -33 -182 -83 -320 -140 -388
-65 -77 -267 -82 -407 -11 -54 27 -131 101 -162 153 -54 92 -72 227 -52 389
11 94 31 114 181 178 245 104 451 169 525 166 43 -2 46 -4 59 -42z m-3854
-1152 c32 -33 65 -106 53 -118 -9 -9 -134 34 -162 56 -32 25 -32 30 0 68 35
41 64 40 109 -6z"/>
<path d="M2306 4578 c-3 -7 -6 -22 -8 -32 -2 -14 -16 -23 -53 -31 -66 -15
-107 -37 -140 -77 -41 -48 -55 -90 -55 -160 1 -116 53 -183 182 -236 l68 -27
0 -147 c0 -126 -2 -148 -15 -148 -27 0 -85 28 -136 66 -61 44 -93 41 -115 -11
-15 -37 -7 -73 24 -109 27 -30 129 -74 188 -82 51 -6 54 -8 54 -35 0 -33 18
-44 54 -35 19 5 25 14 28 38 2 27 8 33 33 38 85 18 164 84 189 158 20 58 20
157 1 213 -22 62 -86 123 -162 155 l-63 27 0 129 0 129 23 -6 c12 -4 50 -16
85 -28 l64 -22 24 28 c39 45 28 94 -25 122 -16 8 -61 20 -99 26 -65 11 -71 14
-74 38 -2 21 -9 27 -36 29 -20 2 -34 -2 -36 -10z m-6 -299 l0 -110 -38 21
c-44 25 -72 66 -72 105 0 33 58 95 89 95 20 0 21 -5 21 -111z m161 -365 c29
-48 25 -106 -11 -147 -17 -19 -39 -37 -50 -40 -19 -5 -20 0 -20 125 l0 129 31
-18 c17 -10 39 -32 50 -49z"/>
<path d="M3836 2399 c-21 -17 -26 -28 -26 -67 1 -86 55 -172 135 -215 56 -30
164 -30 220 0 86 46 135 123 135 212 0 42 -4 53 -26 70 -15 12 -37 21 -49 21
-36 0 -73 -36 -80 -78 -10 -57 -46 -92 -94 -92 -26 0 -81 47 -81 69 0 83 -74
127 -134 80z"/>
</g>
</svg>
