<?xml version="1.0" standalone="no"?>
<!DOCTYPE svg PUBLIC "-//W3C//DTD SVG 20010904//EN"
 "http://www.w3.org/TR/2001/REC-SVG-20010904/DTD/svg10.dtd">
<svg version="1.0" xmlns="http://www.w3.org/2000/svg"
 width="50.000000pt" height="50.000000pt" viewBox="0 0 512.000000 512.000000"
 preserveAspectRatio="xMidYMid meet">
<metadata>
Created by potrace 1.16, written by Peter Selinger 2001-2019
</metadata>
<g transform="translate(0.000000,512.000000) scale(0.100000,-0.100000)"
fill="#de790d" stroke="none">
<path d="M2139 5097 c-62 -33 -101 -92 -107 -161 -6 -80 4 -117 45 -166 53
-61 99 -80 206 -80 l87 0 0 -44 0 -45 -47 -6 c-147 -21 -247 -46 -270 -67 -51
-48 -14 -148 56 -148 16 0 80 9 143 19 62 10 152 22 201 26 l87 7 0 -102 c0
-94 2 -103 25 -125 34 -35 93 -34 126 1 21 23 24 36 27 125 l4 100 66 -6 c121
-12 296 -44 406 -76 149 -42 395 -144 396 -163 0 -6 -18 -40 -40 -77 -48 -80
-53 -134 -17 -166 63 -57 108 -38 173 71 l50 84 87 -62 c192 -137 366 -311
503 -502 l62 -87 -84 -50 c-109 -66 -128 -111 -71 -174 32 -36 82 -30 165 17
38 22 73 40 78 40 19 0 123 -257 167 -410 36 -124 77 -373 77 -465 0 -12 -17
-15 -100 -15 -94 0 -103 -2 -125 -25 -35 -34 -34 -93 0 -125 23 -22 37 -25
125 -28 55 -3 100 -8 100 -14 0 -31 -23 -216 -36 -283 -31 -169 -109 -405
-180 -547 l-24 -47 -77 45 c-83 47 -124 54 -161 28 -33 -23 -43 -55 -31 -98 9
-31 21 -43 90 -83 43 -25 79 -50 79 -54 0 -14 -97 -147 -170 -234 -110 -130
-244 -252 -394 -359 l-79 -57 -43 73 c-53 89 -75 108 -124 108 -30 0 -43 -6
-59 -26 -32 -41 -27 -86 19 -164 22 -38 40 -73 40 -78 0 -15 -174 -91 -315
-137 -136 -45 -282 -77 -425 -95 -140 -17 -128 -26 -132 91 -3 96 -4 102 -31
125 -38 33 -86 32 -121 -2 -25 -25 -26 -32 -26 -126 l0 -100 -92 7 c-51 3
-143 15 -205 26 -62 10 -124 19 -138 19 -67 0 -101 -102 -51 -149 71 -67 558
-104 853 -66 453 60 866 244 1211 540 134 115 227 215 336 360 158 211 265
412 345 650 196 582 155 1206 -113 1752 -99 199 -226 391 -345 516 l-35 37 87
88 87 87 58 -58 c32 -31 62 -57 67 -57 13 0 365 352 365 365 0 13 -352 365
-365 365 -13 0 -365 -352 -365 -365 0 -5 26 -35 57 -67 l58 -58 -88 -87 -87
-88 -42 41 c-265 251 -710 467 -1103 536 -66 11 -126 22 -132 24 -8 2 -13 21
-13 49 l0 45 88 0 c103 0 153 19 199 74 92 112 60 271 -69 337 -35 18 -64 19
-481 19 l-444 0 -44 -23z m902 -173 c9 -11 10 -20 2 -32 -9 -15 -34 -17 -172
-20 l-161 -2 0 -130 0 -130 -80 0 -80 0 0 130 0 130 -161 2 c-136 3 -163 6
-172 19 -6 9 -7 24 -4 33 6 14 46 16 410 16 357 0 406 -2 418 -16z m1622 -686
l-57 -58 -58 57 -58 57 57 58 57 58 58 -57 58 -57 -57 -58z"/>
<path d="M1374 3907 c-21 -19 -27 -32 -27 -67 0 -35 6 -48 27 -67 27 -23 30
-23 272 -23 l246 0 29 29 c20 20 29 39 29 61 0 22 -9 41 -29 61 l-29 29 -246
0 c-242 0 -245 0 -272 -23z"/>
<path d="M945 3305 c-35 -34 -34 -93 1 -126 l26 -24 465 0 465 0 24 28 c26 31
31 66 12 100 -25 47 -18 46 -506 47 l-463 0 -24 -25z"/>
<path d="M3604 3232 c-77 -44 -1147 -827 -1168 -855 -45 -60 -59 -101 -64
-177 -7 -135 57 -243 177 -298 85 -39 177 -37 264 6 42 21 78 47 99 74 18 23
212 289 431 591 430 595 424 585 375 641 -30 34 -74 41 -114 18z m-599 -813
c-125 -173 -238 -324 -252 -336 -36 -30 -77 -35 -123 -17 -75 30 -103 119 -57
183 19 27 646 492 655 486 2 -2 -99 -144 -223 -316z"/>
<path d="M543 2725 c-58 -25 -72 -97 -28 -140 l24 -25 681 0 c664 0 680 0 700
20 46 46 32 122 -26 146 -49 21 -1304 20 -1351 -1z"/>
<path d="M210 2133 c-63 -23 -80 -100 -34 -147 l27 -26 846 0 c649 1 850 3
862 13 44 34 50 93 15 134 l-24 28 -839 2 c-461 1 -845 -1 -853 -4z"/>
<path d="M689 1511 c-20 -20 -29 -39 -29 -61 0 -22 9 -41 29 -61 l29 -29 587
0 587 0 29 29 c39 40 39 82 0 122 l-29 29 -587 0 -587 0 -29 -29z"/>
<path d="M1203 918 c-29 -33 -35 -57 -22 -95 19 -60 39 -63 381 -63 268 0 307
2 338 18 57 28 66 97 18 142 -21 19 -34 20 -358 20 -336 0 -337 0 -357 -22z"/>
</g>
</svg>
