<?xml version="1.0" standalone="no"?>
<!DOCTYPE svg PUBLIC "-//W3C//DTD SVG 20010904//EN"
 "http://www.w3.org/TR/2001/REC-SVG-20010904/DTD/svg10.dtd">
<svg version="1.0" xmlns="http://www.w3.org/2000/svg"
 width="60.000000pt" height="60.000000pt" viewBox="0 0 512.000000 512.000000"
 preserveAspectRatio="xMidYMid meet">
<metadata>
Created by potrace 1.16, written by Peter Selinger 2001-2019
</metadata>
<g transform="translate(0.000000,512.000000) scale(0.100000,-0.100000)"
fill="#000000" stroke="none">
<path d="M2165 4924 c-564 -59 -1041 -274 -1431 -646 -376 -359 -610 -798
-707 -1323 -19 -105 -22 -154 -22 -395 0 -241 3 -290 22 -395 97 -525 331
-964 707 -1323 354 -337 792 -551 1286 -629 162 -25 529 -25 690 0 699 109
1320 519 1678 1107 78 128 80 219 9 305 -59 72 -175 96 -262 56 -49 -22 -69
-44 -131 -141 -197 -311 -464 -550 -789 -710 -260 -127 -491 -185 -780 -197
-618 -24 -1221 261 -1599 757 -264 346 -396 736 -396 1170 0 432 133 825 396
1170 178 234 419 431 689 563 777 381 1708 194 2286 -458 187 -211 335 -484
413 -761 l24 -84 -180 0 -180 0 -29 -29 c-24 -25 -29 -38 -29 -79 l0 -50 278
-333 c153 -184 288 -342 299 -352 24 -21 89 -25 122 -8 12 7 150 166 306 353
282 338 285 342 285 388 0 49 -17 82 -53 102 -14 8 -84 15 -197 18 l-174 5
-26 110 c-221 934 -1009 1653 -1961 1790 -109 16 -458 28 -544 19z"/>
<path d="M2275 4372 c-22 -11 -52 -32 -67 -48 -60 -64 -58 -42 -58 -773 l0
-670 -51 -51 c-73 -74 -103 -143 -107 -255 -3 -73 0 -101 18 -147 69 -186 268
-286 460 -232 l57 16 354 -205 c195 -112 374 -214 398 -227 52 -26 138 -29
191 -7 139 59 174 257 64 359 -16 14 -200 125 -408 246 l-380 219 -11 49 c-16
68 -49 128 -101 184 l-43 46 -3 675 -3 675 -26 49 c-37 74 -92 109 -177 113
-50 2 -77 -2 -107 -16z m169 -1681 c51 -28 71 -66 71 -131 0 -44 -5 -66 -21
-87 -72 -96 -212 -85 -263 21 -26 53 -26 79 -1 132 41 84 131 112 214 65z"/>
</g>
</svg>
