<?xml version="1.0" standalone="no"?>
<!DOCTYPE svg PUBLIC "-//W3C//DTD SVG 20010904//EN"
 "http://www.w3.org/TR/2001/REC-SVG-20010904/DTD/svg10.dtd">
<svg version="1.0" xmlns="http://www.w3.org/2000/svg"
 width="20.000000pt" height="20.000000pt" viewBox="0 0 512.000000 512.000000"
 preserveAspectRatio="xMidYMid meet">
<metadata>
Created by potrace 1.16, written by Peter Selinger 2001-2019
</metadata>
<g transform="translate(0.000000,512.000000) scale(0.100000,-0.100000)"
fill="#000000" stroke="none">
<path d="M2465 5101 c-16 -10 -251 -241 -522 -512 -335 -336 -494 -503 -499
-522 -10 -44 1 -121 22 -150 43 -57 131 -82 201 -57 15 6 184 167 376 358
l347 347 0 -2005 0 -2005 -347 347 c-192 191 -361 352 -376 358 -70 25 -158 0
-201 -57 -21 -29 -32 -106 -22 -150 5 -19 166 -187 504 -526 273 -274 509
-505 524 -513 35 -18 141 -18 176 0 33 18 1005 992 1021 1023 18 36 13 111
-10 153 -38 67 -129 98 -206 70 -15 -6 -184 -167 -375 -358 l-348 -347 0 2005
0 2005 348 -347 c191 -191 360 -352 375 -358 70 -25 158 0 201 57 21 29 32
106 22 150 -5 19 -166 187 -504 526 -273 274 -509 505 -524 513 -40 21 -146
18 -183 -5z"/>
</g>
</svg>
