<?xml version="1.0" standalone="no"?>
<!DOCTYPE svg PUBLIC "-//W3C//DTD SVG 20010904//EN"
 "http://www.w3.org/TR/2001/REC-SVG-20010904/DTD/svg10.dtd">
<svg version="1.0" xmlns="http://www.w3.org/2000/svg"
 width="15.000000pt" height="15.000000pt" viewBox="0 0 512.000000 512.000000"
 preserveAspectRatio="xMidYMid meet">
<metadata>
Created by potrace 1.16, written by Peter Selinger 2001-2019
</metadata>
<g transform="translate(0.000000,512.000000) scale(0.100000,-0.100000)"
fill="#43698d" stroke="none">
<path d="M115 4051 c-141 -35 -152 -147 -44 -481 103 -321 306 -732 554 -1125
397 -629 735 -968 1190 -1190 302 -148 626 -215 906 -187 182 18 250 53 270
138 4 22 9 176 9 344 1 208 5 316 13 340 24 71 129 89 241 40 167 -71 351
-231 761 -662 115 -121 151 -152 200 -175 l60 -28 365 0 365 0 46 27 c58 34
73 67 67 152 -3 49 -13 82 -41 138 -84 164 -292 417 -629 763 -203 210 -248
266 -248 314 0 35 36 96 156 267 236 338 457 690 558 891 127 254 138 370 39
419 -35 17 -69 19 -376 22 -287 3 -347 1 -393 -13 -84 -24 -128 -75 -193 -220
-189 -425 -476 -873 -689 -1080 -87 -84 -143 -122 -190 -131 -40 -8 -57 0 -86
40 -21 27 -21 42 -26 659 -6 718 -3 691 -82 727 -41 19 -69 20 -518 20 -445 0
-478 -2 -517 -19 -48 -22 -73 -62 -73 -118 0 -42 19 -77 83 -157 50 -60 89
-136 114 -223 15 -50 18 -121 21 -535 4 -600 0 -628 -93 -628 -56 0 -112 37
-202 133 -206 222 -478 697 -647 1132 -37 94 -76 195 -88 225 -31 80 -73 137
-121 163 -41 21 -50 22 -387 24 -190 1 -358 -2 -375 -6z"/>
</g>
</svg>
