<?xml version="1.0" standalone="no"?>
<!DOCTYPE svg PUBLIC "-//W3C//DTD SVG 20010904//EN"
 "http://www.w3.org/TR/2001/REC-SVG-20010904/DTD/svg10.dtd">
<svg version="1.0" xmlns="http://www.w3.org/2000/svg"
 width="40.000000pt" height="95.000000pt" viewBox="0 0 512.000000 512.000000"
 preserveAspectRatio="xMidYMid meet">
<metadata>
Created by potrace 1.16, written by Peter Selinger 2001-2019
</metadata>
<g transform="translate(0.000000,512.000000) scale(0.100000,-0.100000)"
fill="#f87f0a" stroke="none">
<path d="M2402 5106 c-117 -29 -253 -116 -339 -218 -60 -71 -113 -195 -130
-300 -15 -93 -14 -95 116 -1652 72 -857 136 -1578 141 -1603 65 -289 441 -390
644 -173 51 54 81 110 96 173 5 25 69 746 141 1603 130 1557 131 1559 116
1652 -34 210 -160 380 -352 472 -44 21 -104 43 -133 49 -70 15 -234 13 -300
-3z"/>
<path d="M2499 819 c-32 -3 -86 -20 -120 -36 -247 -117 -310 -453 -123 -654
85 -90 176 -129 304 -129 128 0 219 39 304 129 206 222 106 592 -184 679 -50
15 -116 19 -181 11z"/>
</g>
</svg>
